<svg width="533" height="533" viewBox="0 0 533 533" fill="none" xmlns="http://www.w3.org/2000/svg">
<rect width="533" height="533" fill="white"/>
<path d="M192.6 66.0966C189.393 66.6147 185.544 68.2924 182.83 70.3649C174.614 76.6069 168.249 89.8559 165.559 106.362C164.548 112.604 163.857 121.264 163.857 127.876C163.857 135.672 164.77 145.64 166.077 152.523C166.374 154.053 166.522 155.41 166.398 155.509C166.3 155.607 165.091 156.594 163.734 157.68C159.095 161.381 153.791 167.08 150.139 172.286C143.132 182.229 138.593 193.529 136.693 205.766C135.953 210.602 135.755 220.372 136.347 225.208C137.655 236.36 141.01 245.784 146.759 254.42L148.634 257.208L148.091 258.121C144.242 264.585 140.961 273.936 139.431 282.916C138.222 290.022 138.074 291.922 138.074 301.445C138.074 311.043 138.198 312.943 139.333 319.579C140.69 327.524 143.453 335.937 146.537 341.538C147.549 343.363 150.016 347.163 150.312 347.36C150.411 347.409 150.115 348.322 149.646 349.383C146.093 357.155 143.058 367.493 141.8 376.202C140.912 382.173 140.788 384.097 140.788 390.389C140.788 398.407 141.232 402.305 142.91 408.695L143.157 409.633H153.717H164.301L163.61 408.325C159.342 400.43 158.947 385.775 162.623 371.144C164.301 364.384 166.201 359.425 169.754 352.591L171.875 348.446V345.905C171.875 343.536 171.826 343.265 171.061 341.71C170.469 340.526 169.68 339.514 168.273 338.133C165.88 335.814 164.153 333.371 162.771 330.361C156.702 317.186 155.518 297.621 159.786 280.942C161.562 273.985 164.498 267.792 167.582 264.412C169.68 262.093 170.765 259.502 170.765 256.813C170.765 254.025 169.778 251.731 167.558 249.337C161.192 242.528 157.269 234.238 155.863 224.591C153.865 210.849 157.492 195.872 165.732 184.005C173.8 172.36 185.124 164.884 197.781 162.886C200.618 162.417 205.923 162.491 208.884 163.034C212.116 163.601 214.139 163.428 216.212 162.442C218.777 161.233 220.061 159.728 221.565 156.274C222.898 153.19 223.934 151.512 226.722 148.033C230.077 143.864 233.309 141.026 238.49 137.597C244.412 133.723 251.147 130.911 257.858 129.554C260.301 129.06 261.436 128.986 266 128.986C270.565 128.986 271.7 129.06 274.142 129.554C283.986 131.552 293.756 136.635 301.553 143.839C303.23 145.393 307.252 150.377 308.535 152.45C309.028 153.263 309.892 154.991 310.435 156.274C311.94 159.728 313.223 161.233 315.788 162.442C317.787 163.404 319.884 163.601 322.993 163.083C327.903 162.244 331.677 162.318 336.489 163.305C352.871 166.611 367.132 180.107 373.448 198.192C378.95 214.056 377.395 230.661 369.204 243.342C367.822 245.489 366.441 247.216 364.442 249.337C360.124 253.951 360.125 259.675 364.418 264.412C371.474 272.135 375.89 291.132 374.558 307.885C373.67 318.938 370.832 328.832 366.934 334.432C366.243 335.419 364.813 337.096 363.727 338.133C362.32 339.514 361.531 340.526 360.939 341.71C360.174 343.265 360.124 343.536 360.124 345.905V348.446L362.246 352.591C365.799 359.425 367.699 364.384 369.377 371.144C373.004 385.578 372.683 399.937 368.538 408.103C368.193 408.794 367.896 409.436 367.896 409.51C367.896 409.584 372.609 409.633 378.382 409.633H388.843L389.115 408.572C389.263 408.005 389.509 407.141 389.633 406.648C389.904 405.562 390.447 402.355 390.891 399.271C391.31 396.162 391.31 384.714 390.891 381.26C389.312 368.726 386.672 358.783 382.355 349.383C381.886 348.322 381.589 347.409 381.688 347.36C381.812 347.286 382.502 346.299 383.242 345.189C388.621 337.047 391.927 326.808 393.605 313.288C394.049 309.562 394.049 293.55 393.605 289.972C392.42 280.745 390.99 274.478 388.621 268.138C387.634 265.498 385.019 259.922 383.909 258.121L383.366 257.208L385.241 254.42C390.99 245.784 394.345 236.36 395.653 225.208C396.245 220.372 396.048 210.602 395.307 205.766C393.383 193.504 388.868 182.253 381.861 172.286C378.209 167.08 372.905 161.381 368.267 157.68C366.909 156.594 365.7 155.607 365.602 155.509C365.479 155.41 365.627 154.053 365.923 152.523C368.908 136.955 368.809 117.538 365.676 102.365C362.962 89.1405 358.028 78.6301 351.662 72.5607C346.58 67.7249 341.398 65.6525 335.181 66.0472C320.92 66.8861 309.423 83.2931 304.883 109.15C304.143 113.319 303.502 118.204 303.502 119.537C303.502 120.055 303.403 120.474 303.28 120.474C303.156 120.474 302.194 119.981 301.158 119.364C290.154 112.85 277.917 109.372 266 109.372C254.084 109.372 241.846 112.85 230.842 119.364C229.806 119.981 228.844 120.474 228.72 120.474C228.597 120.474 228.498 120.055 228.498 119.537C228.498 118.155 227.832 113.122 227.117 109.15C222.996 85.933 213.547 70.5622 200.989 66.6887C199.262 66.1706 194.352 65.8252 192.6 66.0966ZM196.795 86.1798C200.347 88.9924 204.295 97.0356 206.565 106.041C206.984 107.669 207.428 109.544 207.552 110.235C207.65 110.902 207.921 112.406 208.144 113.566C209.106 118.797 209.55 124.446 209.599 131.33L209.624 138.115L207.921 140.631L206.219 143.173H202.247C197.609 143.173 192.995 143.765 188.578 144.949C186.999 145.344 185.47 145.739 185.174 145.813C184.705 145.911 184.631 145.763 184.36 143.74C182.904 132.761 182.978 120.598 184.582 110.482C186.358 99.2067 190.503 88.9924 194.549 85.9824C195.511 85.2669 195.684 85.2916 196.795 86.1798ZM337.476 86.0071C339.918 87.8081 342.607 92.5946 344.606 98.7132C348.627 110.951 349.762 127.752 347.64 143.74C347.369 145.763 347.295 145.911 346.826 145.813C346.53 145.739 345.001 145.344 343.422 144.949C339.005 143.765 334.391 143.173 329.753 143.173H325.781L324.079 140.631L322.376 138.115L322.401 131.33C322.45 121.757 323.339 114.282 325.46 105.967C327.705 97.0356 331.677 88.9924 335.206 86.1798C336.316 85.2916 336.489 85.2669 337.476 86.0071Z" fill="black"/>
<path d="M262.176 210.182C256.822 210.701 255.366 210.898 252.8 211.416C248.63 212.28 243.054 214.204 239.181 216.104C225.71 222.691 216.433 233.671 213.596 246.377C213.028 248.893 212.954 249.732 212.954 253.976C212.954 258.17 213.028 259.083 213.571 261.476C217.346 278.081 232.643 290.343 252.43 292.588C256.723 293.057 275.277 293.057 279.57 292.588C295.458 290.787 309.127 282.176 315.27 270.087C316.898 266.855 317.688 264.757 318.428 261.476C318.971 259.083 319.045 258.17 319.045 253.976C319.045 249.732 318.971 248.893 318.404 246.377C314.283 227.922 296.371 213.39 274.413 210.627C271.551 210.281 264.051 209.985 262.176 210.182ZM271.403 223.604C278.731 224.394 286.108 227.009 292.029 230.957C295.212 233.078 299.702 237.519 301.626 240.431C303.995 244.033 305.352 247.709 305.969 252.175C306.24 254.223 306.092 255.777 305.352 259.083C304.192 264.017 300.59 269.174 295.73 272.776C293.46 274.429 288.748 276.822 285.861 277.76C280.384 279.511 276.806 279.832 264.026 279.734C255.687 279.66 254.206 279.585 251.813 279.142C243.647 277.612 237.183 274.355 232.495 269.396C228.695 265.399 226.968 261.748 226.031 255.851C225.611 253.112 226.401 248.573 228.005 244.748C229.954 240.085 234.987 234.288 239.971 230.957C245.744 227.108 253.343 224.369 260.325 223.629C263.014 223.333 268.713 223.333 271.403 223.604Z" fill="black"/>
<path d="M256.576 241.615C254.7 242.626 253.393 245.192 253.788 247.092C254.232 249.14 256.033 251.212 258.845 252.915C260.35 253.828 260.449 253.951 260.523 254.864C260.572 255.407 260.375 256.961 260.104 258.343C259.807 259.7 259.585 261.131 259.585 261.526C259.61 262.586 260.597 264.314 261.633 265.152C262.546 265.892 262.719 265.917 265.285 265.991C267.629 266.065 268.122 266.016 269.06 265.572C271.478 264.387 272.094 262.216 271.206 258.047C270.466 254.568 270.614 254.025 272.465 252.964C274.413 251.829 276.486 249.831 277.103 248.474C278.287 245.883 277.201 242.947 274.586 241.59C273.945 241.269 273.155 241.122 271.996 241.122C270.195 241.122 269.035 241.541 266.913 242.898L265.704 243.663L264.939 243.194C261.806 241.343 261.239 241.122 259.339 241.146C257.982 241.146 257.242 241.269 256.576 241.615Z" fill="black"/>
<path d="M196.671 212.97C192.304 214.352 189.047 217.559 187.37 222.124C186.556 224.295 186.161 227.725 186.506 229.575C187.32 233.991 190.947 238.013 195.068 239.123C200.249 240.48 204.122 239.592 207.552 236.187C209.55 234.238 210.636 232.536 211.721 229.772C212.511 227.823 212.56 227.478 212.56 224.715L212.585 221.754L211.549 219.632C209.895 216.277 206.91 213.785 203.456 212.872C201.507 212.378 198.374 212.403 196.671 212.97Z" fill="black"/>
<path d="M328.446 212.897C325.066 213.81 322.055 216.326 320.451 219.632L319.416 221.754L319.44 224.715C319.44 227.478 319.49 227.824 320.279 229.772C321.365 232.536 322.45 234.238 324.448 236.187C327.878 239.592 331.751 240.48 336.933 239.124C339.918 238.334 342.903 235.817 344.334 232.881C345.568 230.389 345.864 228.588 345.469 225.751C344.557 219.262 340.757 214.55 335.107 212.897C333.454 212.403 330.247 212.403 328.446 212.897Z" fill="black"/>
<path d="M264 423V434C264 439.523 259.523 444 254 444H237.5" stroke="black" stroke-width="12"/>
<path d="M130 352.144C130 342.507 138.025 334.805 147.657 335.108C237.076 337.916 293.854 335.313 377.805 324.025C391.091 322.238 403 332.51 403 345.915V398.881C403 405.283 398.331 410.739 392.001 411.693C292.092 426.745 233.643 426.404 140.906 411.761C134.621 410.769 130 405.331 130 398.968L130 352.144Z" fill="white" stroke="black" stroke-width="16"/>
<path d="M170.876 343.642C171.977 329.627 181.023 316.852 194.877 314.463C203.578 312.963 212.775 312.647 224.465 313.157C231.852 313.479 237.258 320.127 236.484 327.479C232.06 369.493 232.171 398.092 236.824 442.314C237.476 448.515 233.717 454.43 227.668 455.945C213.118 459.59 201.446 459.964 185.369 456.313C177.823 454.6 172.521 447.946 171.874 440.235C168.786 403.418 168.197 377.738 170.876 343.642Z" fill="white" stroke="black" stroke-width="14"/>
</svg>
